<svg xmlns="http://www.w3.org/2000/svg" viewBox="0 0 256 256" fill="none" stroke="currentColor"><g transform="scale(2.56)" stroke-width="2" stroke-linecap="round" stroke-linejoin="round"><g stroke-width="2.5"><path d="M52 9 L87 18 Q91 19 93 24 L97 35 L78 70 L45 60 L34 43 L48 12Z" fill="#171b18"/><path d="M52 9 L61 24 L45 60 M61 24 L97 35 M61 24 L87 18"/><path d="M49 15 L55 25 L43 48 M66 29 L90 37 L76 63 L52 57" stroke-width="1" opacity=".65"/><g fill="currentColor" stroke="none"><ellipse cx="68" cy="17" rx="2.7" ry="1.8" transform="rotate(15 68 17)"/><ellipse cx="76" cy="39" rx="3" ry="4" transform="rotate(25 76 39)"/><ellipse cx="49" cy="32" rx="2" ry="3" transform="rotate(25 49 32)"/></g><path d="M5 51 L36 31 L64 48 L62 79 L33 96 L10 80Z" fill="currentColor" fill-opacity=".83"/><path d="M5 51 L32 68 L64 48 M32 68 L33 96" stroke="#303530"/><path d="M8 51 L36 34 L60 48 L32 65Z" fill="currentColor" fill-opacity=".28" stroke-width=".8"/><g fill="#242925" stroke="none"><ellipse cx="18" cy="51" rx="2.5" ry="1.8" transform="rotate(-30 18 51)"/><ellipse cx="29" cy="44" rx="2.5" ry="1.8" transform="rotate(-30 29 44)"/><ellipse cx="39" cy="39" rx="2.5" ry="1.8" transform="rotate(-30 39 39)"/><ellipse cx="30" cy="58" rx="2.5" ry="1.8" transform="rotate(-30 30 58)"/><ellipse cx="41" cy="51" rx="2.5" ry="1.8" transform="rotate(-30 41 51)"/><ellipse cx="51" cy="46" rx="2.5" ry="1.8" transform="rotate(-30 51 46)"/><ellipse cx="17" cy="69" rx="2.4" ry="3.8" transform="rotate(-25 17 69)"/><ellipse cx="26" cy="83" rx="2.4" ry="3.8" transform="rotate(-25 26 83)"/><ellipse cx="41" cy="72" rx="2.5" ry="3.3" transform="rotate(25 41 72)"/><ellipse cx="55" cy="62" rx="2.5" ry="3.3" transform="rotate(25 55 62)"/><ellipse cx="42" cy="86" rx="2.5" ry="3.3" transform="rotate(25 42 86)"/><ellipse cx="55" cy="77" rx="2.5" ry="3.3" transform="rotate(25 55 77)"/></g></g></g></svg>
